HIERARCHY
ROOT hip
{
  OFFSET 0 0 0
  CHANNELS 6 Xposition Yposition Zposition Zrotation Yrotation Xrotation
  JOINT abdomen
  {
    OFFSET 0 20.6881 -0.73152
    CHANNELS 3 Zrotation Xrotation Yrotation
    JOINT chest
    {
      OFFSET 0 11.7043 -0.48768
      CHANNELS 3 Zrotation Xrotation Yrotation
      JOINT neck
      {
        OFFSET 0 22.1894 -2.19456
        CHANNELS 3 Zrotation Xrotation Yrotation
        JOINT head
        {
          OFFSET -0.24384 7.07133 1.2192
          CHANNELS 3 Zrotation Xrotation Yrotation
          JOINT leftEye
          {
            OFFSET 4.14528 8.04674 8.04672
            CHANNELS 3 Zrotation Xrotation Yrotation
            End Site
            {
              OFFSET 1 0 0
            }
          }
          JOINT rightEye
          {
            OFFSET -3.6576 8.04674 8.04672
            CHANNELS 3 Zrotation Xrotation Yrotation
            End Site
            {
              OFFSET 1 0 0
            }
          }
        }
      }
      JOINT rCollar
      {
        OFFSET -2.68224 19.2634 -4.8768
        CHANNELS 3 Zrotation Xrotation Yrotation
        JOINT rShldr
        {
          OFFSET -8.77824 -1.95073 1.46304
          CHANNELS 3 Zrotation Xrotation Yrotation
          JOINT rForeArm
          {
            OFFSET -28.1742 -1.7115 0.48768
            CHANNELS 3 Zrotation Xrotation Yrotation
            JOINT rHand
            {
              OFFSET -22.5879 0.773209 7.07136
              CHANNELS 3 Zrotation Xrotation Yrotation
              JOINT rThumb1
              {
                OFFSET -1.2192 -0.487915 3.41376
                CHANNELS 3 Zrotation Xrotation Yrotation
                JOINT rThumb2
                {
                  OFFSET -3.37035 -0.52449 3.41376
                  CHANNELS 3 Zrotation Xrotation Yrotation
                  End Site
                  {
                    OFFSET -1.78271 -1.18214 1.43049
                  }
                }
              }
              JOINT rIndex1
              {
                OFFSET -7.75947 0.938293 5.60832
                CHANNELS 3 Zrotation Xrotation Yrotation
                JOINT rIndex2
                {
                  OFFSET -2.54057 -0.884171 1.56538
                  CHANNELS 3 Zrotation Xrotation Yrotation
                  End Site
                  {
                    OFFSET -1.62519 -0.234802 1.16502
                  }
                }
              }
              JOINT rMid1
              {
                OFFSET -8.24714 1.18213 3.41376
                CHANNELS 3 Zrotation Xrotation Yrotation
                JOINT rMid2
                {
                  OFFSET -3.10165 -0.590103 1.0647
                  CHANNELS 3 Zrotation Xrotation Yrotation
                  End Site
                  {
                    OFFSET -2.48547 -0.328903 0.83742
                  }
                }
              }
              JOINT rRing1
              {
                OFFSET -8.82822 0.546677 1.51678
                CHANNELS 3 Zrotation Xrotation Yrotation
                JOINT rRing2
                {
                  OFFSET -2.60934 -0.819778 -0.0198488
                  CHANNELS 3 Zrotation Xrotation Yrotation
                  End Site
                  {
                    OFFSET -2.33842 -0.294052 0.168128
                  }
                }
              }
              JOINT rPinky1
              {
                OFFSET -8.27202 -0.0477905 -0.4584
                CHANNELS 3 Zrotation Xrotation Yrotation
                JOINT rPinky2
                {
                  OFFSET -1.82734 -0.647385 -0.700984
                  CHANNELS 3 Zrotation Xrotation Yrotation
                  End Site
                  {
                    OFFSET -1.69225 -0.51767 -0.607171
                  }
                }
              }
            }
          }
        }
      }
      JOINT lCollar
      {
        OFFSET 2.68224 19.2634 -4.8768
        CHANNELS 3 Zrotation Xrotation Yrotation
        JOINT lShldr
        {
          OFFSET 8.77824 -1.95073 1.46304
          CHANNELS 3 Zrotation Xrotation Yrotation
          JOINT lForeArm
          {
            OFFSET 28.1742 -1.7115 0.48768
            CHANNELS 3 Zrotation Xrotation Yrotation
            JOINT lHand
            {
              OFFSET 22.5879 0.773209 7.07136
              CHANNELS 3 Zrotation Xrotation Yrotation
              JOINT lThumb1
              {
                OFFSET 1.2192 -0.487915 3.41376
                CHANNELS 3 Zrotation Xrotation Yrotation
                JOINT lThumb2
                {
                  OFFSET 3.37035 -0.52449 3.41376
                  CHANNELS 3 Zrotation Xrotation Yrotation
                  End Site
                  {
                    OFFSET 1.78271 -1.18214 1.43049
                  }
                }
              }
              JOINT lIndex1
              {
                OFFSET 7.75947 0.938293 5.60832
                CHANNELS 3 Zrotation Xrotation Yrotation
                JOINT lIndex2
                {
                  OFFSET 2.54057 -0.884171 1.56538
                  CHANNELS 3 Zrotation Xrotation Yrotation
                  End Site
                  {
                    OFFSET 1.62519 -0.234802 1.16502
                  }
                }
              }
              JOINT lMid1
              {
                OFFSET 8.24714 1.18213 3.41376
                CHANNELS 3 Zrotation Xrotation Yrotation
                JOINT lMid2
                {
                  OFFSET 3.10165 -0.590103 1.0647
                  CHANNELS 3 Zrotation Xrotation Yrotation
                  End Site
                  {
                    OFFSET 2.48547 -0.328903 0.83742
                  }
                }
              }
              JOINT lRing1
              {
                OFFSET 8.82822 0.546677 1.51678
                CHANNELS 3 Zrotation Xrotation Yrotation
                JOINT lRing2
                {
                  OFFSET 2.60934 -0.819778 -0.0198488
                  CHANNELS 3 Zrotation Xrotation Yrotation
                  End Site
                  {
                    OFFSET 2.33842 -0.294052 0.168128
                  }
                }
              }
              JOINT lPinky1
              {
                OFFSET 8.27202 -0.0477905 -0.4584
                CHANNELS 3 Zrotation Xrotation Yrotation
                JOINT lPinky2
                {
                  OFFSET 1.82734 -0.647385 -0.700984
                  CHANNELS 3 Zrotation Xrotation Yrotation
                  End Site
                  {
                    OFFSET 1.69225 -0.51767 -0.607171
                  }
                }
              }
            }
          }
        }
      }
    }
  }
  JOINT rButtock
  {
    OFFSET -8.77824 4.35084 1.2192
    CHANNELS 3 Zrotation Xrotation Yrotation
    JOINT rThigh
    {
      OFFSET 0 -1.70687 -2.19456
      CHANNELS 3 Zrotation Xrotation Yrotation
      JOINT rShin
      {
        OFFSET 0 -36.8199 0.73152
        CHANNELS 3 Zrotation Xrotation Yrotation
        JOINT rFoot
        {
          OFFSET 0.73152 -45.1104 -5.12064
          CHANNELS 3 Zrotation Xrotation Yrotation
          End Site
          {
            OFFSET -1.1221 -3.69964 12.103
          }
        }
      }
    }
  }
  JOINT lButtock
  {
    OFFSET 8.77824 4.35084 1.2192
    CHANNELS 3 Zrotation Xrotation Yrotation
    JOINT lThigh
    {
      OFFSET 0 -1.70687 -2.19456
      CHANNELS 3 Zrotation Xrotation Yrotation
      JOINT lShin
      {
        OFFSET 0 -36.8199 0.73152
        CHANNELS 3 Zrotation Xrotation Yrotation
        JOINT lFoot
        {
          OFFSET -0.73152 -45.1104 -5.12064
          CHANNELS 3 Zrotation Xrotation Yrotation
          End Site
          {
            OFFSET 1.1221 -3.69964 12.103
          }
        }
      }
    }
  }
}
MOTION
Frames:	4
Frame Time:	0.00833333
278.049 84.8429 -26.771 0.0 0.0 0.0 -0.257805 -0.00149939 -0.00737507 -0.0711634 -0.00234959 -0.0123289 1.67749e-15 7.95139e-16 3.72721e-17 5.00378e-15 9.54166e-15 1.19581e-16 -0.0 0.0 0.0 -0.0 0.0 0.0 8.93246e-16 1.94126e-18 1.49089e-16 1.90603e-14 -1.2424e-17 1.39149e-15 3.07868e-13 -8.90555e-14 3.18055e-15 3.48639e-12 9.99887e-14 8.90555e-14 8.22786e-12 2.23836e-14 2.06736e-13 1.42044e-11 3.81667e-14 3.41114e-13 8.23128e-12 1.94809e-14 1.97194e-13 7.73091 5.47488 0.417314 8.22725e-12 2.20651e-14 2.00375e-13 2.90554 0.965183 0.102902 8.23763e-12 2.26615e-14 1.97194e-13 10.2786 0.731801 0.0259123 8.22253e-12 2.46493e-14 2.00375e-13 2.22167 -0.733487 -0.20892 6.97087e-16 1.35888e-18 -1.49089e-16 1.59348e-14 -9.31803e-17 -3.97569e-16 3.00364e-13 9.54166e-14 1.27222e-14 3.49137e-12 -7.51655e-14 8.26944e-14 8.22866e-12 4.31861e-14 1.94014e-13 1.42242e-11 7.95139e-14 3.4509e-13 8.2269e-12 4.25399e-14 2.06736e-13 -7.73091 5.47488 -0.417314 8.22934e-12 4.26393e-14 1.90833e-13 -2.90554 0.965183 -0.102902 8.22738e-12 4.28381e-14 1.97194e-13 -10.2786 0.731801 -0.0259123 8.23426e-12 4.6118e-14 1.90833e-13 -2.22167 -0.733487 0.20892 -2.03217e-16 0.0 -3.88251e-19 0.288533 -2.74965 -0.0315103 -0.00677205 -0.571697 -0.0593189 -0.483452 3.32101 0.122369 2.03217e-16 0.0 3.88251e-19 -0.681402 -3.75931 0.0561647 0.00387438 1.25717 0.0320714 0.487161 2.50184 -0.106258
271.665 83.4058 -32.7618 -153.357 -87.0394 153.055 -0.433517 0.0793887 0.14995 0.0790524 1.37557 0.00747058 -0.971819 1.79771 -1.01777 3.54455 -6.49607 -1.18045 -0.0 0.0 0.0 -0.0 0.0 0.0 1.18667e-14 -6.34539e-13 -4.55924e-15 22.383 5.01419 0.540337 -3.84712 -1.68003 6.08063 0.00252703 -1.11517 -0.15662 -7.15391e-11 -7.65333e-11 6.72058e-10 -1.24473e-10 -1.33489e-10 1.16191e-09 -7.15338e-11 -7.65348e-11 6.72049e-10 7.73091 5.47488 0.417314 -7.1541e-11 -7.65352e-11 6.72055e-10 2.90554 0.965183 0.102902 -7.15272e-11 -7.65334e-11 6.7205e-10 10.2786 0.731801 0.0259123 -7.15424e-11 -7.65325e-11 6.72055e-10 2.22167 -0.733487 -0.20892 1.17056e-14 -6.3454e-13 -4.88925e-15 -22.306 7.03004 -1.38438 3.6061 -1.53293 -5.74178 -0.0109725 -2.32389 0.325631 9.67415e-11 -8.36716e-11 -7.91784e-10 1.7106e-10 -1.46108e-10 -1.36859e-09 9.67357e-11 -8.3671e-11 -7.91768e-10 -7.73091 5.47488 -0.417314 9.67413e-11 -8.36714e-11 -7.91787e-10 -2.90554 0.965183 -0.102902 9.67382e-11 -8.36709e-11 -7.91781e-10 -10.2786 0.731801 -0.0259123 9.67451e-11 -8.36692e-11 -7.91785e-10 -2.22167 -0.733487 0.20892 -2.03217e-16 0.0 -3.88251e-19 0.112418 -5.94047 0.524935 0.0179906 9.36033 0.110193 -0.70996 -3.16295 -1.6496 2.03217e-16 0.0 3.88251e-19 0.0145677 -5.37166 0.530073 -0.0173727 8.5375 -0.101056 0.894534 -2.77197 3.47439
271.667 83.4047 -32.7511 -154.01 -87.0678 153.721 -0.622027 0.163793 0.315228 0.236461 2.83187 0.0281705 -1.92941 3.69533 -2.09694 6.99281 -13.3542 -2.47967 -0.0 0.0 0.0 -0.0 0.0 0.0 2.37053e-14 -1.32351e-12 -9.63174e-15 45.9409 10.3137 1.12605 -7.52889 -3.39316 12.5257 -0.00143752 -2.29543 -0.322582 -1.57246e-10 -1.61114e-10 1.46997e-09 -2.73545e-10 -2.81044e-10 2.54143e-09 -1.57238e-10 -1.61113e-10 1.46996e-09 7.73091 5.47488 0.417314 -1.57249e-10 -1.61117e-10 1.46997e-09 2.90554 0.965183 0.102902 -1.57231e-10 -1.61114e-10 1.46997e-09 10.2786 0.731801 0.0259123 -1.57247e-10 -1.61114e-10 1.46997e-09 2.22167 -0.733487 -0.20892 2.35822e-14 -1.32351e-12 -9.99825e-15 -45.507 14.4478 -2.91629 7.08883 -3.10395 -11.8293 0.00624164 -4.78057 0.671691 2.03179e-10 -1.65035e-10 -1.72258e-09 3.59489e-10 -2.88389e-10 -2.97743e-09 2.03168e-10 -1.65033e-10 -1.72256e-09 -7.73091 5.47488 -0.417314 2.03177e-10 -1.65034e-10 -1.72259e-09 -2.90554 0.965183 -0.102902 2.03173e-10 -1.65033e-10 -1.72258e-09 -10.2786 0.731801 -0.0259123 2.0318e-10 -1.65033e-10 -1.72258e-09 -2.22167 -0.733487 0.20892 -2.03217e-16 0.0 -3.88251e-19 -0.00995096 -9.31537 1.11855 -0.0230324 19.8608 0.304459 -1.38967 -9.99979 -3.56788 2.03217e-16 0.0 3.88251e-19 0.776093 -7.07693 1.03375 -0.0017214 16.2323 -0.249396 2.04605 -8.29026 7.32702
271.667 83.4046 -32.7572 -153.356 -87.0633 153.062 -0.786273 0.241158 0.464603 0.376622 4.13139 0.0471856 -2.72323 5.38631 -3.06536 9.78986 -19.4541 -3.73196 -0.0 0.0 0.0 -0.0 0.0 0.0 3.38137e-14 -1.90362e-12 -1.39759e-14 66.8569 15.0371 1.67208 -10.4885 -4.81347 18.3008 -0.0107354 -3.34541 -0.470573 -2.31073e-10 -2.29645e-10 2.01576e-09 -4.01829e-10 -4.00544e-10 3.48505e-09 -2.31064e-10 -2.29643e-10 2.01575e-09 7.73091 5.47488 0.417314 -2.31077e-10 -2.2965e-10 2.01576e-09 2.90554 0.965183 0.102902 -2.31057e-10 -2.29645e-10 2.01575e-09 10.2786 0.731801 0.0259123 -2.31072e-10 -2.29647e-10 2.01576e-09 2.22167 -0.733487 -0.20892 3.37226e-14 -1.90362e-12 -1.43696e-14 -65.8378 21.039 -4.4169 9.90972 -4.4144 -17.272 0.0468256 -6.97076 0.98336 2.73767e-10 -2.51101e-10 -2.37574e-09 4.84732e-10 -4.38484e-10 -4.10645e-09 2.73753e-10 -2.51098e-10 -2.37572e-09 -7.73091 5.47488 -0.417314 2.73765e-10 -2.511e-10 -2.37574e-09 -2.90554 0.965183 -0.102902 2.7376e-10 -2.51098e-10 -2.37574e-09 -10.2786 0.731801 -0.0259123 2.73767e-10 -2.511e-10 -2.37574e-09 -2.22167 -0.733487 0.20892 -2.03217e-16 0.0 -3.88251e-19 -0.0499533 -12.3178 1.6677 -0.128742 29.2235 0.509681 -2.40179 -16.067 -5.39699 2.03217e-16 0.0 3.88251e-19 1.48739 -8.59421 1.48786 0.0489358 23.0977 -0.395654 3.71594 -13.1022 10.9107
